<svg width="33" height="33" viewBox="0 0 33 33" fill="none" xmlns="http://www.w3.org/2000/svg">
<path d="M31.2097 0.923584H1.75056C1.0421 0.923584 0.469727 1.49596 0.469727 2.20442V31.6635C0.469727 32.372 1.0421 32.9444 1.75056 32.9444H31.2097C31.9181 32.9444 32.4905 32.372 32.4905 31.6635V2.20442C32.4905 1.49596 31.9181 0.923584 31.2097 0.923584ZM27.5113 10.2696H24.9536C22.9483 10.2696 22.5601 11.2223 22.5601 12.6232V15.7092H27.3472L26.7228 20.5403H22.5601V32.9444H17.5688V20.5443H13.3941V15.7092H17.5688V12.1469C17.5688 8.01218 20.0945 5.75872 23.7849 5.75872C25.554 5.75872 27.071 5.89081 27.5153 5.95085V10.2696H27.5113Z" fill="#007AB6"/>
</svg>
