<svg width="33" height="33" viewBox="0 0 33 33" fill="none" xmlns="http://www.w3.org/2000/svg">
<path d="M31.1989 0.923584H1.73982C1.03136 0.923584 0.458984 1.49596 0.458984 2.20442V31.6635C0.458984 32.372 1.03136 32.9444 1.73982 32.9444H31.1989C31.9074 32.9444 32.4798 32.372 32.4798 31.6635V2.20442C32.4798 1.49596 31.9074 0.923584 31.1989 0.923584ZM9.95715 28.2093H5.20606V12.9274H9.95715V28.2093ZM7.58361 10.838C7.03896 10.838 6.50654 10.6765 6.05369 10.3739C5.60083 10.0713 5.24787 9.64125 5.03944 9.13806C4.83101 8.63487 4.77648 8.08118 4.88273 7.54699C4.98899 7.01281 5.25126 6.52213 5.63639 6.13701C6.02151 5.75188 6.51219 5.48961 7.04637 5.38336C7.58055 5.2771 8.13425 5.33163 8.63744 5.54006C9.14062 5.74849 9.57071 6.10145 9.8733 6.55431C10.1759 7.00717 10.3374 7.53958 10.3374 8.08423C10.3334 9.60522 9.10059 10.838 7.58361 10.838ZM27.7447 28.2093H22.9976V20.7765C22.9976 19.0033 22.9656 16.7258 20.528 16.7258C18.0584 16.7258 17.6782 18.6551 17.6782 20.6484V28.2093H12.9351V12.9274H17.49V15.0167H17.5541C18.1865 13.8159 19.7355 12.5471 22.049 12.5471C26.8601 12.5471 27.7447 15.7132 27.7447 19.8279V28.2093Z" fill="#025279"/>
</svg>
