<svg width="16" height="29" viewBox="0 0 16 29" fill="none" xmlns="http://www.w3.org/2000/svg">
<path d="M6.89489 26.1818H8.90625L8.9233 24.2131C12.6136 23.9318 14.7528 21.9716 14.7614 19.0142C14.7528 16.108 12.5625 14.5653 9.52841 13.8835L9.02557 13.7642L9.05966 9.50284C10.1932 9.76704 10.8835 10.4915 10.9858 11.5653H14.5227C14.4801 8.74432 12.375 6.72443 9.09375 6.36648L9.1108 4.36364H7.09943L7.08239 6.34943C3.75 6.67329 1.39773 8.68466 1.41477 11.5909C1.40625 14.1648 3.22159 15.6392 6.17045 16.3466L6.98864 16.5511L6.94602 21.0597C5.55682 20.7955 4.61932 19.9432 4.52557 18.5199H0.954545C1.03977 21.9631 3.2983 23.8892 6.91193 24.2045L6.89489 26.1818ZM8.95739 21.0597L8.99148 17.0795C10.3125 17.4972 11.0284 18.0341 11.0369 19.0057C11.0284 20.0369 10.2443 20.804 8.95739 21.0597ZM7.0142 13.2443C5.94886 12.8778 5.18182 12.3239 5.19886 11.3438C5.19886 10.4318 5.84659 9.72443 7.0483 9.47727L7.0142 13.2443Z" fill="#02897A"/>
</svg>
